<?xml version="1.0" encoding="UTF-8"?>
<svg id="Layer_1" xmlns="http://www.w3.org/2000/svg" viewBox="0 0 46.43 35.04">
  <defs>
    <style>
      .cls-1 {
        fill: #64e2e7;
      }
    </style>
  </defs>
  <path class="cls-1" d="M23.14,35.03c-7.69-.17-14.47-2.66-20.07-8.04-.99-.95-1.86-2.04-2.66-3.17-.56-.79-.53-1.39.02-2.16,3.75-5.22,8.84-8.5,14.98-10.13,9.19-2.44,17.67-.8,25.36,4.77,2.1,1.52,3.89,3.39,5.33,5.58.45.67.42,1.22-.03,1.82-2.69,3.58-5.91,6.4-10.08,8.29-2.59,1.17-5.17,2.1-7.93,2.6-1.62.29-3.26.47-4.92.43ZM23.24,32.7c1.56-.02,3.11-.01,4.66-.3,6.12-1.15,11.35-3.84,15.38-8.68.46-.56.82-1.01.21-1.73-1.3-1.54-2.7-2.96-4.34-4.15-5.39-3.91-11.45-5.52-18.04-5.02-7.25.55-13.4,3.42-18.14,9.07-.55.66-.47,1.11.04,1.73,3.26,3.97,7.18,6.85,12.31,8.02,2.62.6,5.21,1.2,7.92,1.05Z"/>
  <path class="cls-1" d="M18.64,7.88c.02.89-.15,1.32-.73,1.46-.54.12-1.06-.04-1.23-.54-.76-2.17-1.49-4.36-2.15-6.57-.17-.55.2-1.07.76-1.26.52-.17,1.06.1,1.22.56.79,2.21,1.5,4.44,2.14,6.34Z"/>
  <path class="cls-1" d="M31.79,2.48c-.17.55-.41,1.4-.68,2.25-.4,1.26-.8,2.53-1.24,3.78-.23.66-.74,1.02-1.46.8-.72-.22-.79-.84-.62-1.41.62-2.08,1.3-4.14,1.97-6.2.19-.59.71-.84,1.26-.74.6.11.82.62.77,1.53Z"/>
  <path class="cls-1" d="M11.85,11.21c-.63,0-.98-.33-1.2-.8-.83-1.72-1.64-3.45-2.47-5.18-.35-.72-.04-1.21.56-1.55.6-.34,1.09.01,1.34.5.94,1.86,1.87,3.74,2.71,5.65.36.82-.29,1.19-.93,1.38Z"/>
  <path class="cls-1" d="M34.76,11.2c-.86.02-1.46-.71-1.14-1.44.83-1.87,1.73-3.71,2.65-5.53.27-.54.77-.92,1.43-.52.62.37.82.88.48,1.59-.82,1.68-1.61,3.37-2.42,5.06-.22.46-.54.82-1.01.85Z"/>
  <path class="cls-1" d="M24.26,4.34c0,1.03,0,2.05,0,3.08,0,.68-.27,1.11-1.01,1.13-.8.02-1.13-.39-1.13-1.15,0-2.05,0-4.1,0-6.16,0-.71.29-1.25,1.08-1.24.79,0,1.06.56,1.06,1.26.01,1.03,0,2.05,0,3.08,0,0,0,0,0,0Z"/>
  <path class="cls-1" d="M23.15,31.01c-4.45-.02-8.22-3.86-8.2-8.33.02-4.8,4.21-8.13,8.32-8.17,4.35-.04,8.17,3.9,8.16,8.25,0,4.47-3.83,8.27-8.28,8.26ZM23.19,19.03c0-.07.02-.24.03-.42.11-1.95-.18-2.16-2-1.52-2.78.99-4.25,3.42-3.94,6.53.23,2.32,2.4,4.62,4.74,5.02,2.85.49,5.54-.93,6.69-3.52.87-1.96.6-2.37-1.53-2.36-.18,0-.36,0-.54,0-2.8,0-3.54-.77-3.45-3.72Z"/>
</svg>