<?xml version="1.0" encoding="UTF-8"?>
<svg id="Layer_1" xmlns="http://www.w3.org/2000/svg" viewBox="0 0 43.74 43.78">
  <defs>
    <style>
      .cls-1 {
        fill: #5ce1e6;
      }
    </style>
  </defs>
  <path class="cls-1" d="M21.83,43.78c-5.13-.15-9.82-1.63-13.81-4.94-3.8-3.16-6.36-7.14-7.5-11.97-.29-1.22-.42-2.46-.49-3.71-.13-2.5.1-4.96.78-7.37.82-2.91,2.24-5.5,4.18-7.81,1.69-2.01,3.63-3.73,5.92-5.05,2.39-1.38,4.96-2.24,7.69-2.66,1.3-.2,2.6-.31,3.92-.25,1.94.08,3.84.4,5.7.96.4.12.73.34.87.76.13.41.05.79-.24,1.1-.33.35-.75.41-1.19.28-1.12-.33-2.25-.58-3.41-.72-1.78-.22-3.56-.18-5.33.07-2.15.31-4.22.93-6.13,1.97-5.27,2.87-8.7,7.19-10.12,13.06-.43,1.76-.6,3.54-.5,5.35.2,3.53,1.25,6.8,3.17,9.76,3.03,4.65,7.32,7.5,12.73,8.6,7.11,1.44,14.4-1.23,18.98-6.85,2.28-2.8,3.68-6,4.22-9.57.44-2.88.19-5.72-.61-8.51-.06-.19-.1-.39-.1-.59,0-.54.37-.98.89-1.04.62-.08,1.11.2,1.24.75.37,1.63.82,3.25.97,4.92.09.98.09,1.98.01,2.96-.15,1.81-.42,3.61-1.01,5.35-.75,2.2-1.81,4.25-3.16,6.15-2.69,3.8-6.29,6.37-10.69,7.83-1.65.55-3.34.93-5.07,1.13-.64.08-1.28.02-1.93.08Z"/>
  <path class="cls-1" d="M8.86,21.81c.05,3.34,1.16,6.28,3.4,8.77,2.12,2.37,4.78,3.78,7.93,4.16,4.11.5,7.73-.66,10.75-3.5,2.23-2.09,3.49-4.7,3.91-7.72.12-.85.14-1.7.06-2.56-.07-.67.37-1.21,1-1.27.62-.05,1.16.43,1.2,1.09.26,4.38-1.05,8.21-4.04,11.43-2.06,2.22-4.53,3.75-7.5,4.42-5.1,1.14-9.71.09-13.7-3.33-2.7-2.31-4.35-5.29-4.97-8.78-.85-4.78.4-9.02,3.52-12.7,2.3-2.71,5.23-4.36,8.73-5,1.23-.22,2.46-.31,3.71-.2.73.06,1.22.66,1.11,1.37-.09.56-.58.9-1.24.84-.47-.04-.94-.05-1.41-.03-2.54.1-4.85.9-6.92,2.38-2.85,2.04-4.62,4.79-5.31,8.22-.16.8-.24,1.6-.23,2.42Z"/>
  <path class="cls-1" d="M31.98,15.31c-.49,0-.99.01-1.48,0-.36-.01-.63.12-.88.37-2.21,2.22-4.43,4.44-6.65,6.67-.2.2-.41.37-.67.49-.43.18-.84.1-1.17-.22-.33-.33-.4-.74-.2-1.17.1-.23.25-.42.43-.6,2.23-2.22,4.45-4.45,6.68-6.67.27-.27.41-.56.4-.96-.02-1.03,0-2.05,0-3.08,0-.5.17-.91.53-1.26,1.72-1.71,3.43-3.42,5.14-5.13.37-.37.72-.74,1.09-1.1.35-.35.76-.53,1.26-.35.48.17.73.54.73,1.12,0,.89,0,1.77,0,2.66q0,.5.49.5c.92,0,1.84,0,2.75.01.48,0,.85.22,1.02.69.18.47.08.87-.28,1.23-2.11,2.11-4.23,4.21-6.34,6.33-.34.34-.75.48-1.21.49-.55,0-1.09,0-1.64,0h0ZM37.68,8.75c-.56,0-1.08,0-1.6,0-.65,0-1.07-.42-1.09-1.07-.01-.42,0-.85,0-1.27,0-.11.06-.27-.04-.32-.1-.04-.19.11-.27.18-1.3,1.3-2.59,2.6-3.89,3.9-.09.09-.15.19-.15.32,0,.8,0,1.6,0,2.41,0,.15.05.2.2.19.7,0,1.4-.01,2.1,0,.35,0,.62-.12.86-.37,1.2-1.2,2.4-2.4,3.6-3.6.1-.1.21-.21.29-.38Z"/>
  <path class="cls-1" d="M21.99,30.55c-4.31,0-7.92-3.06-8.67-7.26-.84-4.77,2.45-9.38,7.31-10.09.4-.06.8-.1,1.2-.1.68,0,1.17.43,1.21,1.06.04.57-.46,1.08-1.11,1.15-.51.05-1.01.07-1.51.18-2.5.55-4.53,2.7-4.92,5.22-.56,3.56,1.67,6.78,5.2,7.49,3.52.72,7.04-1.7,7.64-5.24.07-.42.06-.85.13-1.26.09-.57.5-.97,1-.98.58-.02,1.03.32,1.15.87.05.21.02.43.01.65-.08,1.36-.38,2.68-1.08,3.86-1.38,2.34-3.42,3.77-6.08,4.32-.51.1-1.02.15-1.48.14Z"/>
</svg>