<?xml version="1.0" encoding="UTF-8"?>
<svg id="Layer_1" xmlns="http://www.w3.org/2000/svg" viewBox="0 0 57.56 57.56">
  <defs>
    <style>
      .cls-1 {
        fill: #3081f4;
      }

      .cls-2 {
        fill: #fff;
      }
    </style>
  </defs>
  <circle class="cls-2" cx="28.78" cy="28.78" r="28.78"/>
  <path class="cls-1" d="M27.06,25.7c1.72-6.93,5.82-11.58,12.7-13.67,1.22-.37,2.49-.51,3.77-.6.65-.05.85.19.85.83-.03,2.48,0,4.97,0,7.45,0,8.43,0,16.86.02,25.29,0,.95-.25,1.21-1.21,1.16-7.65-.39-14.42-6.31-15.9-13.97-.02-.12-.04-.24-.22-.36v1.32c0,3.99-.03,7.97.02,11.96.01.91-.29,1.08-1.13,1.05-7.94-.33-15.03-6.81-16.11-14.76-1.36-9.97,5.42-18.72,15.42-19.89.23-.03.46-.02.68-.06.84-.15,1.14.13,1.13,1.03-.05,3.99-.02,7.97-.02,11.96v1.27h0Z"/>
</svg>